{
	"asset":{
		"generator":"Khronos glTF Blender I/O v5.1.19",
		"version":"2.0"
	},
	"scene":0,
	"scenes":[
		{
			"name":"Scene",
			"nodes":[
				0,
				1,
				4
			]
		}
	],
	"nodes":[
		{
			"mesh":0,
			"name":"\u30b7\u30ea\u30f3\u30c0\u30fc1"
		},
		{
			"mesh":1,
			"name":"\u30b7\u30ea\u30f3\u30c0\u30fc2"
		},
		{
			"name":"\u9320\u524d",
			"translation":[
				0.008500000461935997,
				0,
				0
			]
		},
		{
			"mesh":2,
			"name":"\u9375\u7a74",
			"skin":0
		},
		{
			"children":[
				3,
				2
			],
			"name":"\u30a2\u30fc\u30de\u30c1\u30e5\u30a2"
		}
	],
	"animations":[
		{
			"channels":[
				{
					"sampler":0,
					"target":{
						"node":2,
						"path":"translation"
					}
				},
				{
					"sampler":1,
					"target":{
						"node":2,
						"path":"rotation"
					}
				},
				{
					"sampler":2,
					"target":{
						"node":2,
						"path":"scale"
					}
				}
			],
			"name":"Open",
			"samplers":[
				{
					"input":21,
					"interpolation":"LINEAR",
					"output":22
				},
				{
					"input":23,
					"interpolation":"LINEAR",
					"output":24
				},
				{
					"input":21,
					"interpolation":"LINEAR",
					"output":25
				}
			]
		}
	],
	"materials":[
		{
			"doubleSided":true,
			"name":"\u30de\u30c6\u30ea\u30a2\u30eb",
			"pbrMetallicRoughness":{
				"baseColorFactor":[
					0.05087645351886749,
					0.050877008587121964,
					0.05087757855653763,
					1
				],
				"metallicFactor":0,
				"roughnessFactor":0.5
			}
		},
		{
			"doubleSided":true,
			"name":"\u30de\u30c6\u30ea\u30a2\u30eb.001",
			"pbrMetallicRoughness":{
				"baseColorFactor":[
					0.10047505795955658,
					0.10047733783721924,
					0.10047972202301025,
					1
				],
				"metallicFactor":0,
				"roughnessFactor":0.5
			}
		},
		{
			"doubleSided":true,
			"name":"\u30de\u30c6\u30ea\u30a2\u30eb.002",
			"pbrMetallicRoughness":{
				"baseColorFactor":[
					0.21403686702251434,
					0.21403303742408752,
					0.21402913331985474,
					1
				],
				"metallicFactor":0,
				"roughnessFactor":0.5
			}
		},
		{
			"doubleSided":true,
			"name":"\u30de\u30c6\u30ea\u30a2\u30eb.003",
			"pbrMetallicRoughness":{
				"baseColorFactor":[
					0,
					0,
					0,
					1
				],
				"metallicFactor":0,
				"roughnessFactor":0.5
			}
		}
	],
	"meshes":[
		{
			"name":"\u5186\u67f1.002",
			"primitives":[
				{
					"attributes":{
						"POSITION":0,
						"NORMAL":1,
						"TEXCOORD_0":2
					},
					"indices":3,
					"material":0
				}
			]
		},
		{
			"name":"\u5186\u67f1.003",
			"primitives":[
				{
					"attributes":{
						"POSITION":4,
						"NORMAL":5,
						"TEXCOORD_0":6
					},
					"indices":7,
					"material":1
				}
			]
		},
		{
			"name":"\u5186\u67f1.004",
			"primitives":[
				{
					"attributes":{
						"POSITION":8,
						"NORMAL":9,
						"TEXCOORD_0":10,
						"JOINTS_0":11,
						"WEIGHTS_0":12
					},
					"indices":13,
					"material":2
				},
				{
					"attributes":{
						"POSITION":14,
						"NORMAL":15,
						"TEXCOORD_0":16,
						"JOINTS_0":17,
						"WEIGHTS_0":18
					},
					"indices":19,
					"material":3
				}
			]
		}
	],
	"skins":[
		{
			"inverseBindMatrices":20,
			"joints":[
				2
			],
			"name":"\u30a2\u30fc\u30de\u30c1\u30e5\u30a2"
		}
	],
	"accessors":[
		{
			"bufferView":0,
			"componentType":5126,
			"count":120,
			"max":[
				0.032175250351428986,
				0.00935367587953806,
				0.03383105993270874
			],
			"min":[
				-0.032175250351428986,
				-0.004999999888241291,
				-0.03383105993270874
			],
			"type":"VEC3"
		},
		{
			"bufferView":1,
			"componentType":5126,
			"count":120,
			"type":"VEC3"
		},
		{
			"bufferView":2,
			"componentType":5126,
			"count":120,
			"type":"VEC2"
		},
		{
			"bufferView":3,
			"componentType":5123,
			"count":228,
			"type":"SCALAR"
		},
		{
			"bufferView":4,
			"componentType":5126,
			"count":120,
			"max":[
				0.01678614132106304,
				0.011151766404509544,
				0.017649991437792778
			],
			"min":[
				-0.01678614132106304,
				-0.00010224571451544762,
				-0.017649991437792778
			],
			"type":"VEC3"
		},
		{
			"bufferView":5,
			"componentType":5126,
			"count":120,
			"type":"VEC3"
		},
		{
			"bufferView":6,
			"componentType":5126,
			"count":120,
			"type":"VEC2"
		},
		{
			"bufferView":7,
			"componentType":5123,
			"count":228,
			"type":"SCALAR"
		},
		{
			"bufferView":8,
			"componentType":5126,
			"count":72,
			"max":[
				0.014823144301772118,
				0.012001332826912403,
				0.006648547016084194
			],
			"min":[
				0.002176856156438589,
				0.002001333050429821,
				-0.006648547016084194
			],
			"type":"VEC3"
		},
		{
			"bufferView":9,
			"componentType":5126,
			"count":72,
			"type":"VEC3"
		},
		{
			"bufferView":10,
			"componentType":5126,
			"count":72,
			"type":"VEC2"
		},
		{
			"bufferView":11,
			"componentType":5121,
			"count":72,
			"type":"VEC4"
		},
		{
			"bufferView":12,
			"componentType":5126,
			"count":72,
			"type":"VEC4"
		},
		{
			"bufferView":13,
			"componentType":5123,
			"count":150,
			"type":"SCALAR"
		},
		{
			"bufferView":14,
			"componentType":5126,
			"count":84,
			"max":[
				0.01380195003002882,
				0.012001332826912403,
				0.0011880744714289904
			],
			"min":[
				0.003938762005418539,
				0.008308956399559975,
				-0.0016036488814279437
			],
			"type":"VEC3"
		},
		{
			"bufferView":15,
			"componentType":5126,
			"count":84,
			"type":"VEC3"
		},
		{
			"bufferView":16,
			"componentType":5126,
			"count":84,
			"type":"VEC2"
		},
		{
			"bufferView":17,
			"componentType":5121,
			"count":84,
			"type":"VEC4"
		},
		{
			"bufferView":18,
			"componentType":5126,
			"count":84,
			"type":"VEC4"
		},
		{
			"bufferView":19,
			"componentType":5123,
			"count":168,
			"type":"SCALAR"
		},
		{
			"bufferView":20,
			"componentType":5126,
			"count":1,
			"type":"MAT4"
		},
		{
			"bufferView":21,
			"componentType":5126,
			"count":2,
			"max":[
				2.5
			],
			"min":[
				0.041666666666666664
			],
			"type":"SCALAR"
		},
		{
			"bufferView":22,
			"componentType":5126,
			"count":2,
			"type":"VEC3"
		},
		{
			"bufferView":23,
			"componentType":5126,
			"count":60,
			"max":[
				2.5
			],
			"min":[
				0.041666666666666664
			],
			"type":"SCALAR"
		},
		{
			"bufferView":24,
			"componentType":5126,
			"count":60,
			"type":"VEC4"
		},
		{
			"bufferView":25,
			"componentType":5126,
			"count":2,
			"type":"VEC3"
		}
	],
	"bufferViews":[
		{
			"buffer":0,
			"byteLength":1440,
			"byteOffset":0,
			"target":34962
		},
		{
			"buffer":0,
			"byteLength":1440,
			"byteOffset":1440,
			"target":34962
		},
		{
			"buffer":0,
			"byteLength":960,
			"byteOffset":2880,
			"target":34962
		},
		{
			"buffer":0,
			"byteLength":456,
			"byteOffset":3840,
			"target":34963
		},
		{
			"buffer":0,
			"byteLength":1440,
			"byteOffset":4296,
			"target":34962
		},
		{
			"buffer":0,
			"byteLength":1440,
			"byteOffset":5736,
			"target":34962
		},
		{
			"buffer":0,
			"byteLength":960,
			"byteOffset":7176,
			"target":34962
		},
		{
			"buffer":0,
			"byteLength":456,
			"byteOffset":8136,
			"target":34963
		},
		{
			"buffer":0,
			"byteLength":864,
			"byteOffset":8592,
			"target":34962
		},
		{
			"buffer":0,
			"byteLength":864,
			"byteOffset":9456,
			"target":34962
		},
		{
			"buffer":0,
			"byteLength":576,
			"byteOffset":10320,
			"target":34962
		},
		{
			"buffer":0,
			"byteLength":288,
			"byteOffset":10896,
			"target":34962
		},
		{
			"buffer":0,
			"byteLength":1152,
			"byteOffset":11184,
			"target":34962
		},
		{
			"buffer":0,
			"byteLength":300,
			"byteOffset":12336,
			"target":34963
		},
		{
			"buffer":0,
			"byteLength":1008,
			"byteOffset":12636,
			"target":34962
		},
		{
			"buffer":0,
			"byteLength":1008,
			"byteOffset":13644,
			"target":34962
		},
		{
			"buffer":0,
			"byteLength":672,
			"byteOffset":14652,
			"target":34962
		},
		{
			"buffer":0,
			"byteLength":336,
			"byteOffset":15324,
			"target":34962
		},
		{
			"buffer":0,
			"byteLength":1344,
			"byteOffset":15660,
			"target":34962
		},
		{
			"buffer":0,
			"byteLength":336,
			"byteOffset":17004,
			"target":34963
		},
		{
			"buffer":0,
			"byteLength":64,
			"byteOffset":17340
		},
		{
			"buffer":0,
			"byteLength":8,
			"byteOffset":17404
		},
		{
			"buffer":0,
			"byteLength":24,
			"byteOffset":17412
		},
		{
			"buffer":0,
			"byteLength":240,
			"byteOffset":17436
		},
		{
			"buffer":0,
			"byteLength":960,
			"byteOffset":17676
		},
		{
			"buffer":0,
			"byteLength":24,
			"byteOffset":18636
		}
	],
	"buffers":[
		{
			"byteLength":18660,
			"uri":"Lock.bin"
		}
	]
}
