{
	"asset":{
		"generator":"Khronos glTF Blender I/O v5.1.19",
		"version":"2.0"
	},
	"extensionsUsed":[
		"KHR_materials_specular"
	],
	"scene":0,
	"scenes":[
		{
			"name":"Scene",
			"nodes":[
				4
			]
		}
	],
	"nodes":[
		{
			"name":"lid",
			"rotation":[
				0.6917108297348022,
				-4.4104631058417e-08,
				0.07798966020345688,
				0.7179510593414307
			],
			"translation":[
				0,
				0.18961620330810547,
				0
			]
		},
		{
			"children":[
				0
			],
			"name":"desk"
		},
		{
			"mesh":0,
			"name":"\u5f15\u304d\u51fa\u3057",
			"skin":0
		},
		{
			"mesh":1,
			"name":"\u673a",
			"skin":0
		},
		{
			"children":[
				2,
				3,
				1
			],
			"name":"\u30a2\u30fc\u30de\u30c1\u30e5\u30a2"
		}
	],
	"animations":[
		{
			"channels":[
				{
					"sampler":0,
					"target":{
						"node":1,
						"path":"translation"
					}
				},
				{
					"sampler":1,
					"target":{
						"node":1,
						"path":"rotation"
					}
				},
				{
					"sampler":2,
					"target":{
						"node":1,
						"path":"scale"
					}
				},
				{
					"sampler":3,
					"target":{
						"node":0,
						"path":"translation"
					}
				},
				{
					"sampler":4,
					"target":{
						"node":0,
						"path":"rotation"
					}
				},
				{
					"sampler":5,
					"target":{
						"node":0,
						"path":"scale"
					}
				}
			],
			"name":"Open",
			"samplers":[
				{
					"input":31,
					"interpolation":"STEP",
					"output":32
				},
				{
					"input":31,
					"interpolation":"STEP",
					"output":33
				},
				{
					"input":31,
					"interpolation":"STEP",
					"output":34
				},
				{
					"input":35,
					"interpolation":"LINEAR",
					"output":36
				},
				{
					"input":31,
					"interpolation":"STEP",
					"output":37
				},
				{
					"input":31,
					"interpolation":"STEP",
					"output":38
				}
			]
		}
	],
	"materials":[
		{
			"doubleSided":true,
			"extensions":{
				"KHR_materials_specular":{
					"specularFactor":0.6600000262260437
				}
			},
			"name":"wood.002",
			"pbrMetallicRoughness":{
				"baseColorFactor":[
					0.8313726186752319,
					0.6549019813537598,
					0.42352938652038574,
					1
				],
				"metallicFactor":0
			}
		},
		{
			"doubleSided":true,
			"extensions":{
				"KHR_materials_specular":{
					"specularFactor":0.6600000262260437
				}
			},
			"name":"_defaultMat.002",
			"pbrMetallicRoughness":{
				"metallicFactor":0
			}
		},
		{
			"doubleSided":true,
			"extensions":{
				"KHR_materials_specular":{
					"specularFactor":0.6600000262260437
				}
			},
			"name":"metal.002",
			"pbrMetallicRoughness":{
				"baseColorFactor":[
					0.6588234901428223,
					0.8274509906768799,
					0.8274509906768799,
					1
				],
				"metallicFactor":0
			}
		},
		{
			"doubleSided":true,
			"extensions":{
				"KHR_materials_specular":{
					"specularFactor":0.6600000262260437
				}
			},
			"name":"wood.001",
			"pbrMetallicRoughness":{
				"baseColorFactor":[
					0.8313726186752319,
					0.6549019813537598,
					0.42352938652038574,
					1
				],
				"metallicFactor":0
			}
		},
		{
			"doubleSided":true,
			"extensions":{
				"KHR_materials_specular":{
					"specularFactor":0.6600000262260437
				}
			},
			"name":"_defaultMat.001",
			"pbrMetallicRoughness":{
				"metallicFactor":0
			}
		}
	],
	"meshes":[
		{
			"name":"cabinetBedDrawerTable.002",
			"primitives":[
				{
					"attributes":{
						"POSITION":0,
						"NORMAL":1,
						"TEXCOORD_0":2,
						"JOINTS_0":3,
						"WEIGHTS_0":4
					},
					"indices":5,
					"material":0
				},
				{
					"attributes":{
						"POSITION":6,
						"NORMAL":7,
						"TEXCOORD_0":8,
						"JOINTS_0":9,
						"WEIGHTS_0":10
					},
					"indices":11,
					"material":1
				},
				{
					"attributes":{
						"POSITION":12,
						"NORMAL":13,
						"TEXCOORD_0":14,
						"JOINTS_0":15,
						"WEIGHTS_0":16
					},
					"indices":17,
					"material":2
				}
			]
		},
		{
			"name":"cabinetBedDrawerTable.001",
			"primitives":[
				{
					"attributes":{
						"POSITION":19,
						"NORMAL":20,
						"TEXCOORD_0":21,
						"JOINTS_0":22,
						"WEIGHTS_0":23
					},
					"indices":24,
					"material":3
				},
				{
					"attributes":{
						"POSITION":25,
						"NORMAL":26,
						"TEXCOORD_0":27,
						"JOINTS_0":28,
						"WEIGHTS_0":29
					},
					"indices":30,
					"material":4
				}
			]
		}
	],
	"skins":[
		{
			"inverseBindMatrices":18,
			"joints":[
				1,
				0
			],
			"name":"\u30a2\u30fc\u30de\u30c1\u30e5\u30a2"
		}
	],
	"accessors":[
		{
			"bufferView":0,
			"componentType":5126,
			"count":84,
			"max":[
				0.09540000557899475,
				0.21860001981258392,
				0.06399998813867569
			],
			"min":[
				-0.1013999953866005,
				0.16820940375328064,
				-0.10000001639127731
			],
			"type":"VEC3"
		},
		{
			"bufferView":1,
			"componentType":5126,
			"count":84,
			"type":"VEC3"
		},
		{
			"bufferView":2,
			"componentType":5126,
			"count":84,
			"type":"VEC2"
		},
		{
			"bufferView":3,
			"componentType":5121,
			"count":84,
			"type":"VEC4"
		},
		{
			"bufferView":4,
			"componentType":5126,
			"count":84,
			"type":"VEC4"
		},
		{
			"bufferView":5,
			"componentType":5123,
			"count":150,
			"type":"SCALAR"
		},
		{
			"bufferView":6,
			"componentType":5126,
			"count":16,
			"max":[
				0.09540000557899475,
				0.21860001981258392,
				0.06399998813867569
			],
			"min":[
				-0.1013999953866005,
				0.16820941865444183,
				0.06399998813867569
			],
			"type":"VEC3"
		},
		{
			"bufferView":7,
			"componentType":5126,
			"count":16,
			"type":"VEC3"
		},
		{
			"bufferView":8,
			"componentType":5126,
			"count":16,
			"type":"VEC2"
		},
		{
			"bufferView":9,
			"componentType":5121,
			"count":16,
			"type":"VEC4"
		},
		{
			"bufferView":10,
			"componentType":5126,
			"count":16,
			"type":"VEC4"
		},
		{
			"bufferView":11,
			"componentType":5123,
			"count":18,
			"type":"SCALAR"
		},
		{
			"bufferView":12,
			"componentType":5126,
			"count":20,
			"max":[
				0.019800007343292236,
				0.20385000109672546,
				-0.10000001639127731
			],
			"min":[
				-0.025799989700317383,
				0.18334999680519104,
				-0.11230001598596573
			],
			"type":"VEC3"
		},
		{
			"bufferView":13,
			"componentType":5126,
			"count":20,
			"type":"VEC3"
		},
		{
			"bufferView":14,
			"componentType":5126,
			"count":20,
			"type":"VEC2"
		},
		{
			"bufferView":15,
			"componentType":5121,
			"count":20,
			"type":"VEC4"
		},
		{
			"bufferView":16,
			"componentType":5126,
			"count":20,
			"type":"VEC4"
		},
		{
			"bufferView":17,
			"componentType":5123,
			"count":30,
			"type":"SCALAR"
		},
		{
			"bufferView":18,
			"componentType":5126,
			"count":2,
			"type":"MAT4"
		},
		{
			"bufferView":19,
			"componentType":5126,
			"count":163,
			"max":[
				0.1300000101327896,
				0.2632000148296356,
				0.10499999672174454
			],
			"min":[
				-0.13599999248981476,
				0,
				-0.11000002920627594
			],
			"type":"VEC3"
		},
		{
			"bufferView":20,
			"componentType":5126,
			"count":163,
			"type":"VEC3"
		},
		{
			"bufferView":21,
			"componentType":5126,
			"count":163,
			"type":"VEC2"
		},
		{
			"bufferView":22,
			"componentType":5121,
			"count":163,
			"type":"VEC4"
		},
		{
			"bufferView":23,
			"componentType":5126,
			"count":163,
			"type":"VEC4"
		},
		{
			"bufferView":24,
			"componentType":5123,
			"count":300,
			"type":"SCALAR"
		},
		{
			"bufferView":25,
			"componentType":5126,
			"count":12,
			"max":[
				0.09540000557899475,
				0.21860001981258392,
				0.06399998813867569
			],
			"min":[
				-0.1013999953866005,
				0.16820941865444183,
				0.06399998813867569
			],
			"type":"VEC3"
		},
		{
			"bufferView":26,
			"componentType":5126,
			"count":12,
			"type":"VEC3"
		},
		{
			"bufferView":27,
			"componentType":5126,
			"count":12,
			"type":"VEC2"
		},
		{
			"bufferView":28,
			"componentType":5121,
			"count":12,
			"type":"VEC4"
		},
		{
			"bufferView":29,
			"componentType":5126,
			"count":12,
			"type":"VEC4"
		},
		{
			"bufferView":30,
			"componentType":5123,
			"count":12,
			"type":"SCALAR"
		},
		{
			"bufferView":31,
			"componentType":5126,
			"count":2,
			"max":[
				2.5
			],
			"min":[
				0.041666666666666664
			],
			"type":"SCALAR"
		},
		{
			"bufferView":32,
			"componentType":5126,
			"count":2,
			"type":"VEC3"
		},
		{
			"bufferView":33,
			"componentType":5126,
			"count":2,
			"type":"VEC4"
		},
		{
			"bufferView":34,
			"componentType":5126,
			"count":2,
			"type":"VEC3"
		},
		{
			"bufferView":35,
			"componentType":5126,
			"count":60,
			"max":[
				2.5
			],
			"min":[
				0.041666666666666664
			],
			"type":"SCALAR"
		},
		{
			"bufferView":36,
			"componentType":5126,
			"count":60,
			"type":"VEC3"
		},
		{
			"bufferView":37,
			"componentType":5126,
			"count":2,
			"type":"VEC4"
		},
		{
			"bufferView":38,
			"componentType":5126,
			"count":2,
			"type":"VEC3"
		}
	],
	"bufferViews":[
		{
			"buffer":0,
			"byteLength":1008,
			"byteOffset":0,
			"target":34962
		},
		{
			"buffer":0,
			"byteLength":1008,
			"byteOffset":1008,
			"target":34962
		},
		{
			"buffer":0,
			"byteLength":672,
			"byteOffset":2016,
			"target":34962
		},
		{
			"buffer":0,
			"byteLength":336,
			"byteOffset":2688,
			"target":34962
		},
		{
			"buffer":0,
			"byteLength":1344,
			"byteOffset":3024,
			"target":34962
		},
		{
			"buffer":0,
			"byteLength":300,
			"byteOffset":4368,
			"target":34963
		},
		{
			"buffer":0,
			"byteLength":192,
			"byteOffset":4668,
			"target":34962
		},
		{
			"buffer":0,
			"byteLength":192,
			"byteOffset":4860,
			"target":34962
		},
		{
			"buffer":0,
			"byteLength":128,
			"byteOffset":5052,
			"target":34962
		},
		{
			"buffer":0,
			"byteLength":64,
			"byteOffset":5180,
			"target":34962
		},
		{
			"buffer":0,
			"byteLength":256,
			"byteOffset":5244,
			"target":34962
		},
		{
			"buffer":0,
			"byteLength":36,
			"byteOffset":5500,
			"target":34963
		},
		{
			"buffer":0,
			"byteLength":240,
			"byteOffset":5536,
			"target":34962
		},
		{
			"buffer":0,
			"byteLength":240,
			"byteOffset":5776,
			"target":34962
		},
		{
			"buffer":0,
			"byteLength":160,
			"byteOffset":6016,
			"target":34962
		},
		{
			"buffer":0,
			"byteLength":80,
			"byteOffset":6176,
			"target":34962
		},
		{
			"buffer":0,
			"byteLength":320,
			"byteOffset":6256,
			"target":34962
		},
		{
			"buffer":0,
			"byteLength":60,
			"byteOffset":6576,
			"target":34963
		},
		{
			"buffer":0,
			"byteLength":128,
			"byteOffset":6636
		},
		{
			"buffer":0,
			"byteLength":1956,
			"byteOffset":6764,
			"target":34962
		},
		{
			"buffer":0,
			"byteLength":1956,
			"byteOffset":8720,
			"target":34962
		},
		{
			"buffer":0,
			"byteLength":1304,
			"byteOffset":10676,
			"target":34962
		},
		{
			"buffer":0,
			"byteLength":652,
			"byteOffset":11980,
			"target":34962
		},
		{
			"buffer":0,
			"byteLength":2608,
			"byteOffset":12632,
			"target":34962
		},
		{
			"buffer":0,
			"byteLength":600,
			"byteOffset":15240,
			"target":34963
		},
		{
			"buffer":0,
			"byteLength":144,
			"byteOffset":15840,
			"target":34962
		},
		{
			"buffer":0,
			"byteLength":144,
			"byteOffset":15984,
			"target":34962
		},
		{
			"buffer":0,
			"byteLength":96,
			"byteOffset":16128,
			"target":34962
		},
		{
			"buffer":0,
			"byteLength":48,
			"byteOffset":16224,
			"target":34962
		},
		{
			"buffer":0,
			"byteLength":192,
			"byteOffset":16272,
			"target":34962
		},
		{
			"buffer":0,
			"byteLength":24,
			"byteOffset":16464,
			"target":34963
		},
		{
			"buffer":0,
			"byteLength":8,
			"byteOffset":16488
		},
		{
			"buffer":0,
			"byteLength":24,
			"byteOffset":16496
		},
		{
			"buffer":0,
			"byteLength":32,
			"byteOffset":16520
		},
		{
			"buffer":0,
			"byteLength":24,
			"byteOffset":16552
		},
		{
			"buffer":0,
			"byteLength":240,
			"byteOffset":16576
		},
		{
			"buffer":0,
			"byteLength":720,
			"byteOffset":16816
		},
		{
			"buffer":0,
			"byteLength":32,
			"byteOffset":17536
		},
		{
			"buffer":0,
			"byteLength":24,
			"byteOffset":17568
		}
	],
	"buffers":[
		{
			"byteLength":17592,
			"uri":"Desk.bin"
		}
	]
}
